<svg width="66" height="61" viewBox="0 0 66 61" fill="none" xmlns="http://www.w3.org/2000/svg">
<path d="M23.9999 12.6917C24.9452 12.6917 25.7616 13.3557 25.9569 14.2815C25.9569 14.2815 26.5428 17.0939 27.6092 20.383C28.6756 23.676 30.367 27.4339 31.8084 28.8753C33.2498 30.3167 37.0115 32.0081 40.3006 33.0745C43.5936 34.1409 46.4061 34.7268 46.4061 34.7268V34.7307C47.3358 34.926 47.9999 35.7424 47.9999 36.6877C47.9999 37.6369 47.3358 38.4533 46.4061 38.6486C46.4061 38.6486 43.5936 39.2345 40.3006 40.3009C37.0076 41.3672 33.2498 43.0587 31.8084 44.5001C30.367 45.9415 28.6756 49.7032 27.6092 52.9923C26.5428 56.2853 25.9569 59.0939 25.9569 59.0939V59.0978C25.7616 60.0236 24.9452 60.6876 23.9999 60.6876C23.0507 60.6876 22.2343 60.0235 22.039 59.0978C22.039 59.0978 21.4531 56.2853 20.3867 52.9962C19.3203 49.7032 17.6289 45.9454 16.1836 44.504C14.7422 43.0626 10.9805 41.3712 7.6875 40.3048C4.3945 39.2384 1.58589 38.6525 1.58589 38.6525L1.5898 38.6486C0.664018 38.4532 0 37.6369 0 36.6877C0 35.7424 0.664058 34.926 1.5898 34.7307C1.5898 34.7307 4.4023 34.1447 7.6914 33.0784C10.9844 32.012 14.7422 30.3206 16.1875 28.8792C17.6289 27.4378 19.3242 23.6761 20.3906 20.387C21.457 17.094 22.0429 14.2854 22.0429 14.2854L22.039 14.2814C22.2343 13.3557 23.0507 12.6917 23.9999 12.6917Z" fill="white"/>
<path d="M48 0C48.512 0 48.9542 0.359731 49.06 0.861216C49.06 0.861216 49.3774 2.38478 49.955 4.16653C50.5326 5.95039 51.4488 7.98604 52.2296 8.76687C53.0103 9.54769 55.0479 10.4639 56.8295 11.0416C58.6132 11.6193 60.1367 11.9367 60.1367 11.9367V11.9388C60.6403 12.0446 61 12.4869 61 12.9989C61 13.5131 60.6403 13.9554 60.1367 14.0612C60.1367 14.0612 58.6132 14.3786 56.8295 14.9563C55.0458 15.5339 53.0103 16.4502 52.2296 17.231C51.4488 18.0118 50.5326 20.0496 49.955 21.8314C49.3774 23.6152 49.06 25.1367 49.06 25.1367V25.1388C48.9542 25.6403 48.512 26 48 26C47.4858 26 47.0436 25.6403 46.9378 25.1388C46.9378 25.1388 46.6204 23.6152 46.0428 21.8335C45.4652 20.0496 44.549 18.014 43.7661 17.2331C42.9854 16.4523 40.9478 15.5361 39.1641 14.9584C37.3804 14.3807 35.859 14.0633 35.859 14.0633L35.8611 14.0612C35.3597 13.9554 35 13.5131 35 12.9989C35 12.4869 35.3597 12.0446 35.8611 11.9388C35.8611 11.9388 37.3846 11.6214 39.1662 11.0437C40.9499 10.4661 42.9854 9.54981 43.7682 8.76898C44.549 7.98816 45.4673 5.95039 46.0449 4.16864C46.6226 2.38478 46.9399 0.86333 46.9399 0.86333L46.9378 0.861214C47.0436 0.359707 47.4858 0 48 0Z" fill="white"/>
<path d="M56.5 40C56.8742 40 57.1973 40.2629 57.2746 40.6294C57.2746 40.6294 57.5066 41.7427 57.9287 43.0448C58.3508 44.3484 59.0203 45.836 59.5908 46.4066C60.1614 46.9772 61.6504 47.6467 62.9524 48.0689C64.2558 48.491 65.3691 48.723 65.3691 48.723V48.7245C65.7371 48.8018 66 49.125 66 49.4992C66 49.875 65.7371 50.1982 65.3691 50.2755C65.3691 50.2755 64.2558 50.5074 62.9524 50.9296C61.6489 51.3517 60.1614 52.0213 59.5908 52.5919C59.0203 53.1625 58.3508 54.6516 57.9287 55.9537C57.5065 57.2573 57.2746 58.3691 57.2746 58.3691V58.3707C57.1973 58.7371 56.8742 59 56.5 59C56.1242 59 55.8011 58.7371 55.7238 58.3707C55.7238 58.3707 55.4919 57.2573 55.0697 55.9552C54.6476 54.6516 53.9781 53.164 53.406 52.5934C52.8355 52.0228 51.3465 51.3533 50.043 50.9311C48.7395 50.509 47.6278 50.277 47.6278 50.277L47.6293 50.2755C47.2628 50.1982 47 49.875 47 49.4992C47 49.125 47.2629 48.8018 47.6293 48.7245C47.6293 48.7245 48.7426 48.4926 50.0445 48.0704C51.348 47.6483 52.8355 46.9787 53.4076 46.4081C53.9781 45.8375 54.6492 44.3484 55.0713 43.0463C55.4934 41.7427 55.7253 40.6309 55.7253 40.6309L55.7238 40.6293C55.8011 40.2629 56.1243 40 56.5 40Z" fill="white"/>
</svg>
